<?xml version="1.0" encoding="UTF-8" standalone="no"?>
<!DOCTYPE svg PUBLIC "-//W3C//DTD SVG 1.1//EN"
 "http://www.w3.org/Graphics/SVG/1.1/DTD/svg11.dtd">
<!-- Generated by graphviz version 11.0.0 (0)
 -->
<!-- Pages: 1 -->
<svg width="206pt" height="187pt"
 viewBox="0.00 0.00 206.00 186.50" xmlns="http://www.w3.org/2000/svg" xmlns:xlink="http://www.w3.org/1999/xlink">
<g id="graph0" class="graph" transform="scale(1 1) rotate(0) translate(4 182.5)">
<polygon fill="white" stroke="none" points="-4,4 -4,-182.5 202,-182.5 202,4 -4,4"/>
<g id="clust1" class="cluster">
<title>cluster_esp</title>
<polygon fill="none" stroke="black" points="17,-93.25 17,-170.5 171,-170.5 171,-93.25 17,-93.25"/>
<text text-anchor="middle" x="94" y="-153.2" font-family="Times,serif" font-size="14.00">esp32</text>
</g>
<g id="clust2" class="cluster">
<title>cluster_buzzer</title>
<polygon fill="none" stroke="black" points="8,-8 8,-85.25 190,-85.25 190,-8 8,-8"/>
<text text-anchor="middle" x="99" y="-67.95" font-family="Times,serif" font-size="14.00">buzzer</text>
</g>
<!-- d16 -->
<g id="node1" class="node">
<title>d16</title>
<ellipse fill="none" stroke="black" cx="55" cy="-119.25" rx="30.16" ry="18"/>
<text text-anchor="middle" x="55" y="-114.58" font-family="Times,serif" font-size="14.00">d16</text>
</g>
<!-- plus -->
<g id="node3" class="node">
<title>plus</title>
<ellipse fill="none" stroke="black" cx="48" cy="-34" rx="32.27" ry="18"/>
<text text-anchor="middle" x="48" y="-29.32" font-family="Times,serif" font-size="14.00">plus</text>
</g>
<!-- d16&#45;&#45;plus -->
<g id="edge1" class="edge">
<title>d16&#45;&#45;plus</title>
<path fill="none" stroke="black" d="M53.55,-101C52.35,-86.71 50.65,-66.51 49.45,-52.23"/>
</g>
<!-- gnd -->
<g id="node2" class="node">
<title>gnd</title>
<ellipse fill="none" stroke="black" cx="133" cy="-119.25" rx="30.16" ry="18"/>
<text text-anchor="middle" x="133" y="-114.58" font-family="Times,serif" font-size="14.00">gnd</text>
</g>
<!-- minus -->
<g id="node4" class="node">
<title>minus</title>
<ellipse fill="none" stroke="black" cx="140" cy="-34" rx="41.74" ry="18"/>
<text text-anchor="middle" x="140" y="-29.32" font-family="Times,serif" font-size="14.00">minus</text>
</g>
<!-- minus&#45;&#45;gnd -->
<g id="edge2" class="edge">
<title>minus&#45;&#45;gnd</title>
<path fill="none" stroke="black" d="M138.55,-52.23C137.35,-66.51 135.65,-86.71 134.45,-101"/>
</g>
</g>
</svg>
